# Blender v2.83.7 OBJ File: 'MetalSword.blend'
# www.blender.org
mtllib MetalSword.mtl
o highlight_立方体.004
v -0.063000 -0.075000 3.600000
v -0.063000 -0.075000 0.400000
v 0.063000 -0.075000 0.400000
v 0.063000 -0.075000 3.600000
v -0.063000 0.075000 3.600000
v -0.063000 0.075000 0.400000
v 0.063000 0.075000 0.400000
v 0.063000 0.075000 3.600000
vt 0.899684 0.928835
vt 0.899684 0.662068
vt 0.799646 0.662068
vt 0.799646 0.928835
vt 0.520602 0.930224
vt 0.520602 0.830186
vt 0.253835 0.830186
vt 0.253835 0.930224
vn 0.0000 -1.0000 0.0000
vn 0.0000 1.0000 0.0000
usemtl 材质
s off
f 3/1/1 4/2/1 1/3/1 2/4/1
f 7/5/2 6/6/2 5/7/2 8/8/2
o highlight2_立方体.005
v -0.450000 0.000000 4.000000
v 0.450000 0.000000 4.000000
v 0.400000 -0.050000 3.950000
v -0.400000 -0.050000 3.950000
v -0.400000 0.050000 3.950000
v 0.400000 0.050000 3.950000
v 0.450000 0.000000 0.400000
v 0.400000 -0.050000 0.375000
v 0.400000 0.050000 0.375000
v -0.450000 0.000000 0.400000
v -0.400000 -0.050000 0.375000
v -0.400000 0.050000 0.375000
vt 0.676909 0.667298
vt 0.618341 0.670491
vt 0.617312 0.502757
vt 0.678511 0.506526
vt 0.678686 0.881369
vt 0.617968 0.880376
vt 0.557142 0.666722
vt 0.558744 0.505950
vt 0.556966 0.881831
vt 0.556967 0.291880
vt 0.617685 0.292873
vt 0.678686 0.291418
vn 0.0000 -0.7071 0.7071
vn 0.7071 -0.7071 0.0000
vn 0.0000 0.7071 0.7071
vn 0.7071 0.7071 0.0000
vn -0.7071 0.7071 0.0000
vn -0.7071 -0.7071 0.0000
usemtl 材质
s off
f 11/9/3 10/10/3 9/11/3 12/12/3
f 16/13/4 15/14/4 10/10/4 11/9/4
f 10/10/5 14/15/5 13/16/5 9/11/5
f 15/14/6 17/17/6 14/15/6 10/10/6
f 9/11/7 13/16/7 20/18/7 18/19/7
f 12/12/8 9/11/8 18/19/8 19/20/8
o 剑身_立方体.009
v 0.400000 -0.050000 3.950000
v -0.400000 -0.050000 3.950000
v -0.400000 0.050000 3.950000
v 0.400000 0.050000 3.950000
v 0.450000 0.000000 0.400000
v 0.400000 -0.050000 0.375000
v 0.400000 0.050000 0.375000
v -0.450000 0.000000 0.400000
v -0.400000 -0.050000 0.375000
v -0.400000 0.050000 0.375000
v -0.375000 -0.100000 3.925000
v -0.375000 -0.100000 0.000000
v 0.375000 -0.100000 3.925000
v 0.375000 -0.100000 0.000000
v -0.375000 0.100000 3.925000
v -0.375000 0.100000 0.000000
v 0.375000 0.100000 0.000000
v 0.375000 0.100000 3.925000
v -0.063000 0.100000 3.625000
v -0.063000 0.100000 0.400000
v 0.063000 0.100000 3.625000
v 0.063000 0.100000 0.400000
v -0.375000 0.100000 3.925000
v -0.375000 0.100000 0.000000
v 0.375000 0.100000 0.000000
v 0.375000 0.100000 3.925000
v -0.063000 0.075000 3.600000
v -0.063000 0.075000 0.400000
v 0.063000 0.075000 0.400000
v 0.063000 0.075000 3.600000
v -0.063000 -0.100000 3.625000
v -0.063000 -0.100000 0.400000
v 0.063000 -0.100000 3.625000
v 0.063000 -0.100000 0.400000
v -0.375000 -0.100000 3.925000
v -0.375000 -0.100000 0.000000
v 0.375000 -0.100000 0.000000
v 0.375000 -0.100000 3.925000
v -0.063000 -0.075000 3.600000
v -0.063000 -0.075000 0.400000
v 0.063000 -0.075000 0.400000
v 0.063000 -0.075000 3.600000
v -0.425000 -0.050000 0.000000
v 0.425000 -0.050000 0.000000
v 0.425000 -0.050000 3.975000
v -0.425000 -0.050000 3.975000
v -0.425000 0.050000 3.975000
v -0.425000 0.050000 0.000000
v 0.425000 0.050000 0.000000
v 0.425000 0.050000 3.975000
v -0.475000 0.000000 0.000000
v 0.475000 0.000000 0.000000
v -0.425000 -0.050000 0.000000
v 0.425000 -0.050000 0.000000
v -0.425000 0.050000 0.000000
v 0.425000 0.050000 0.000000
v 0.475000 0.000000 0.400000
v 0.425000 -0.050000 0.375000
v 0.425000 0.050000 0.375000
v -0.475000 0.000000 0.400000
v -0.425000 -0.050000 0.375000
v -0.425000 0.050000 0.375000
vt 0.101361 0.441075
vt 0.056564 0.413597
vt 0.222669 0.291418
vt 0.254227 0.334322
vt 0.254227 0.742420
vt 0.195589 0.788243
vt 0.018182 0.561219
vt 0.090379 0.544420
vt 0.881347 0.195257
vt 0.705299 0.190467
vt 0.734531 0.164401
vt 0.849480 0.174687
vt 0.878430 0.107969
vt 0.701353 0.082866
vt 0.678003 0.043004
vt 0.895941 0.075595
vt 0.678143 0.230009
vt 0.895941 0.226575
vt 0.854967 0.124564
vt 0.739986 0.117167
vt 0.175680 0.195784
vt 0.207516 0.175166
vt 0.322450 0.164708
vt 0.351720 0.190730
vt 0.178466 0.108492
vt 0.160907 0.076144
vt 0.378796 0.043228
vt 0.355506 0.083124
vt 0.378936 0.230232
vt 0.161133 0.227123
vt 0.316924 0.117483
vt 0.201954 0.125051
vt 0.290591 0.629835
vt 0.357409 0.605219
vt 0.520602 0.745352
vt 0.478246 0.793822
vt 0.472589 0.291418
vt 0.520602 0.335406
vt 0.353855 0.500014
vt 0.302288 0.477307
vt 0.801697 0.260613
vt 0.791339 0.433344
vt 0.722194 0.433344
vt 0.735926 0.255534
vt 0.801697 0.606075
vt 0.735926 0.611154
vt 0.871073 0.435123
vt 0.884805 0.257312
vt 0.950576 0.262392
vt 0.940218 0.435123
vt 0.884805 0.612933
vt 0.950576 0.607854
vt 0.528558 0.255054
vt 0.528381 0.018182
vt 0.237896 0.352146
vt 0.102666 0.444869
vt 0.093279 0.539560
vt 0.239059 0.712685
vt 0.805468 0.433344
vt 0.815962 0.607578
vt 0.815962 0.259111
vt 0.503678 0.722790
vt 0.359098 0.601177
vt 0.356333 0.504845
vt 0.504376 0.360705
vt 0.954347 0.435123
vt 0.964841 0.260889
vt 0.964841 0.609356
vn -0.7071 0.7071 0.0000
vn 0.7071 0.7071 0.0000
vn 0.0000 0.7071 0.7071
vn -1.0000 0.0000 0.0000
vn 0.0000 1.0000 0.0000
vn 1.0000 0.0000 0.0000
vn 0.0000 0.7071 -0.7071
vn 0.0000 0.0000 1.0000
vn 0.0000 -1.0000 0.0000
vn 0.0000 -0.7071 -0.7071
vn -0.7071 -0.7071 0.0000
vn 0.7071 -0.7071 0.0000
vn 0.0000 -0.7071 0.7071
vn 0.0000 0.0000 -1.0000
vn 0.0000 0.4472 0.8944
vn 0.0000 -0.4472 0.8944
usemtl 材质
s off
f 67/21/9 35/22/9 36/23/9 68/24/9
f 69/25/10 37/26/10 38/27/10 70/28/10
f 70/28/11 38/27/11 35/22/11 67/21/11
f 41/29/12 42/30/12 49/31/12 50/32/12
f 39/33/13 40/34/13 44/35/13 43/36/13
f 40/34/13 42/30/13 45/37/13 44/35/13
f 42/30/13 41/29/13 46/38/13 45/37/13
f 41/29/13 39/33/13 43/36/13 46/38/13
f 40/34/14 39/33/14 47/39/14 48/40/14
f 39/33/15 41/29/15 50/32/15 47/39/15
f 42/30/16 40/34/16 48/40/16 49/31/16
f 53/41/12 62/42/12 61/43/12 54/44/12
f 51/45/17 55/46/17 56/47/17 52/48/17
f 52/48/17 56/47/17 57/49/17 54/44/17
f 54/44/17 57/49/17 58/50/17 53/41/17
f 53/41/17 58/50/17 55/46/17 51/45/17
f 52/48/14 60/51/14 59/52/14 51/45/14
f 51/45/18 59/52/18 62/42/18 53/41/18
f 54/44/16 61/43/16 60/51/16 52/48/16
f 31/53/19 66/54/19 63/55/19 32/56/19
f 34/57/20 64/58/20 65/59/20 33/60/20
f 33/60/21 65/59/21 66/54/21 31/53/21
f 81/61/19 80/62/19 71/63/19 73/64/19
f 80/62/9 82/65/9 75/66/9 71/63/9
f 72/67/10 76/68/10 79/69/10 77/70/10
f 74/71/20 72/67/20 77/70/20 78/72/20
f 72/73/22 57/49/22 56/47/22 71/74/22
f 45/37/22 72/73/22 71/74/22 44/35/22
f 30/75/17 23/76/17 67/21/17 68/24/17
f 23/76/17 24/77/17 70/28/17 67/21/17
f 24/77/17 27/78/17 69/25/17 70/28/17
f 28/79/23 30/80/23 82/65/23 80/62/23
f 29/81/24 28/79/24 80/62/24 81/61/24
f 29/82/13 63/55/13 66/54/13 22/83/13
f 22/83/13 66/54/13 65/59/13 21/84/13
f 21/84/13 65/59/13 64/58/13 26/85/13
f 25/86/23 77/70/23 79/69/23 27/87/23
f 26/88/24 78/72/24 77/70/24 25/86/24
