# Blender v2.83.7 OBJ File: 'BeamBullet.blend'
# www.blender.org
mtllib BeamBullet.mtl
o çƒä½“.001
v 0.000000 0.250000 8.728203
v -0.000000 -0.000000 10.893676
v 0.067649 0.067649 10.728839
v 0.125000 0.125000 10.259423
v 0.163320 0.163320 9.556893
v 0.176777 0.176776 8.728203
v 0.163320 0.163320 7.224206
v 0.125000 0.125000 5.441620
v 0.067649 0.067649 2.893591
v 0.095671 -0.000000 10.728839
v 0.176777 -0.000000 10.259423
v 0.230970 -0.000000 9.556893
v 0.250000 -0.000000 8.728203
v 0.230970 -0.000000 7.224206
v 0.176777 -0.000000 5.441620
v 0.095671 -0.000000 2.893591
v 0.000000 -0.000000 -0.055908
v 0.067649 -0.067650 10.728839
v 0.125000 -0.125000 10.259423
v 0.163320 -0.163321 9.556893
v 0.176777 -0.176777 8.728203
v 0.163320 -0.163321 7.224206
v 0.125000 -0.125000 5.441620
v 0.067649 -0.067650 2.893591
v 0.000000 -0.095671 10.728839
v 0.000000 -0.176777 10.259423
v 0.000000 -0.230970 9.556893
v 0.000000 -0.250000 8.728203
v 0.000000 -0.230970 7.224206
v 0.000000 -0.176777 5.441620
v 0.000000 -0.095671 2.893591
v -0.067649 -0.067650 10.728839
v -0.125000 -0.125000 10.259423
v -0.163320 -0.163321 9.556893
v -0.176777 -0.176777 8.728203
v -0.163320 -0.163321 7.224206
v -0.125000 -0.125000 5.441620
v -0.067649 -0.067650 2.893591
v -0.095671 -0.000000 10.728839
v -0.176777 -0.000000 10.259423
v -0.230970 -0.000000 9.556893
v -0.250000 -0.000000 8.728203
v -0.230970 -0.000000 7.224206
v -0.176777 -0.000000 5.441620
v -0.095671 -0.000000 2.893591
v -0.067649 0.067649 10.728839
v -0.125000 0.125000 10.259423
v -0.163320 0.163320 9.556893
v -0.176777 0.176776 8.728203
v -0.163320 0.163320 7.224206
v -0.125000 0.125000 5.441620
v -0.067649 0.067649 2.893591
v -0.000000 0.095670 10.728839
v -0.000000 0.176776 10.259423
v -0.000000 0.230969 9.556893
v -0.000000 0.230969 7.224206
v -0.000000 0.176776 5.441620
v -0.000000 0.095671 2.893591
vt 0.687500 0.000000
vt 0.750000 0.125000
vt 0.625000 0.125000
vt 0.750000 0.250000
vt 0.750000 0.375000
vt 0.625000 0.375000
vt 0.625000 0.250000
vt 0.750000 0.500000
vt 0.750000 0.625000
vt 0.625000 0.625000
vt 0.625000 0.500000
vt 0.750000 0.750000
vt 0.750000 0.875000
vt 0.625000 0.875000
vt 0.625000 0.750000
vt 0.687500 1.000000
vt 0.500000 0.875000
vt 0.500000 0.750000
vt 0.500000 0.250000
vt 0.500000 0.125000
vt 0.500000 0.500000
vt 0.500000 0.375000
vt 0.500000 0.625000
vt 0.562500 1.000000
vt 0.562500 0.000000
vt 0.375000 0.250000
vt 0.375000 0.125000
vt 0.375000 0.500000
vt 0.375000 0.375000
vt 0.375000 0.750000
vt 0.375000 0.625000
vt 0.437500 1.000000
vt 0.375000 0.875000
vt 0.437500 0.000000
vt 0.312500 1.000000
vt 0.250000 0.875000
vt 0.312500 0.000000
vt 0.250000 0.125000
vt 0.250000 0.375000
vt 0.250000 0.250000
vt 0.250000 0.625000
vt 0.250000 0.500000
vt 0.250000 0.750000
vt 0.125000 0.375000
vt 0.125000 0.250000
vt 0.125000 0.625000
vt 0.125000 0.500000
vt 0.125000 0.875000
vt 0.125000 0.750000
vt 0.125000 0.125000
vt 0.187500 1.000000
vt 0.187500 0.000000
vt 0.000000 0.250000
vt 0.000000 0.125000
vt 0.000000 0.500000
vt 0.000000 0.375000
vt 0.000000 0.750000
vt 0.000000 0.625000
vt 0.062500 1.000000
vt 0.000000 0.875000
vt 0.062500 0.000000
vt 1.000000 0.375000
vt 1.000000 0.500000
vt 0.875000 0.500000
vt 0.875000 0.375000
vt 1.000000 0.625000
vt 1.000000 0.750000
vt 0.875000 0.750000
vt 0.875000 0.625000
vt 1.000000 0.875000
vt 0.937500 1.000000
vt 0.875000 0.875000
vt 0.937500 0.000000
vt 1.000000 0.125000
vt 0.875000 0.125000
vt 1.000000 0.250000
vt 0.875000 0.250000
vt 0.812500 0.000000
vt 0.812500 1.000000
vn 0.0114 0.0277 -0.9996
vn 0.0011 0.9498 -0.3128
vn 0.6708 0.6725 -0.3128
vn 0.0006 0.9973 -0.0740
vn 0.0004 1.0000 -0.0099
vn 0.7068 0.7074 -0.0099
vn 0.7047 0.7056 -0.0740
vn 0.0002 1.0000 0.0092
vn 0.0006 0.9910 0.1337
vn 0.7003 0.7012 0.1337
vn 0.7069 0.7072 0.0092
vn 0.0152 0.9753 0.2202
vn 0.0245 0.8410 0.5405
vn 0.5773 0.6120 0.5405
vn 0.6789 0.7004 0.2202
vn 0.0020 0.9492 -0.3146
vn 0.0007 0.9974 -0.0724
vn 0.7048 0.7057 -0.0724
vn 0.6697 0.6726 -0.3146
vn 0.0001 0.9996 -0.0267
vn -0.0000 0.9991 0.0430
vn 0.7065 0.7064 0.0430
vn 0.7068 0.7069 -0.0267
vn 0.0031 0.9965 0.0831
vn 0.0057 0.9535 0.3013
vn 0.6702 0.6783 0.3013
vn 0.7025 0.7069 0.0831
vn 0.0739 0.9193 0.3866
vn 0.1233 0.2978 0.9466
vn 0.5977 0.7023 0.3866
vn 0.7004 0.6789 0.2202
vn 0.6120 0.5773 0.5405
vn 0.8410 0.0245 0.5405
vn 0.9753 0.0152 0.2202
vn 0.6726 0.6698 -0.3146
vn 0.7057 0.7048 -0.0724
vn 0.9974 0.0007 -0.0724
vn 0.9492 0.0021 -0.3146
vn 0.7069 0.7068 -0.0267
vn 0.7064 0.7065 0.0430
vn 0.9991 -0.0000 0.0430
vn 0.9996 0.0001 -0.0267
vn 0.7069 0.7025 0.0831
vn 0.6783 0.6702 0.3013
vn 0.9535 0.0057 0.3013
vn 0.9965 0.0031 0.0831
vn 0.7023 0.5977 0.3866
vn 0.2977 0.1234 0.9466
vn 0.9193 0.0739 0.3866
vn 0.0276 0.0115 -0.9996
vn 0.6724 0.6708 -0.3128
vn 0.9498 0.0012 -0.3128
vn 0.7056 0.7047 -0.0740
vn 0.7074 0.7068 -0.0099
vn 1.0000 0.0004 -0.0099
vn 0.9973 0.0006 -0.0740
vn 0.7072 0.7069 0.0092
vn 0.7012 0.7003 0.1337
vn 0.9910 0.0006 0.1337
vn 1.0000 0.0002 0.0092
vn 0.9492 -0.0020 -0.3146
vn 0.9974 -0.0007 -0.0724
vn 0.7057 -0.7048 -0.0724
vn 0.6726 -0.6697 -0.3146
vn 0.9996 -0.0001 -0.0267
vn 0.7064 -0.7065 0.0430
vn 0.7069 -0.7068 -0.0267
vn 0.9965 -0.0031 0.0831
vn 0.9535 -0.0057 0.3013
vn 0.6783 -0.6702 0.3013
vn 0.7069 -0.7025 0.0831
vn 0.9193 -0.0740 0.3866
vn 0.2978 -0.1233 0.9467
vn 0.7023 -0.5977 0.3866
vn 0.0277 -0.0114 -0.9996
vn 0.9498 -0.0011 -0.3128
vn 0.6725 -0.6708 -0.3128
vn 0.9973 -0.0006 -0.0740
vn 1.0000 -0.0004 -0.0099
vn 0.7074 -0.7068 -0.0099
vn 0.7056 -0.7047 -0.0740
vn 1.0000 -0.0002 0.0092
vn 0.9910 -0.0006 0.1337
vn 0.7012 -0.7003 0.1337
vn 0.7072 -0.7069 0.0092
vn 0.9753 -0.0152 0.2202
vn 0.8410 -0.0245 0.5405
vn 0.6120 -0.5773 0.5405
vn 0.7004 -0.6789 0.2202
vn 0.5977 -0.7023 0.3866
vn 0.1233 -0.2978 0.9466
vn 0.0739 -0.9193 0.3866
vn 0.0115 -0.0276 -0.9996
vn 0.6708 -0.6724 -0.3128
vn 0.0012 -0.9498 -0.3128
vn 0.7047 -0.7056 -0.0740
vn 0.7068 -0.7074 -0.0099
vn 0.0004 -1.0000 -0.0099
vn 0.0006 -0.9973 -0.0740
vn 0.7069 -0.7072 0.0092
vn 0.7003 -0.7012 0.1337
vn 0.0006 -0.9910 0.1337
vn 0.0002 -1.0000 0.0092
vn 0.6789 -0.7004 0.2202
vn 0.5773 -0.6120 0.5405
vn 0.0245 -0.8410 0.5405
vn 0.0152 -0.9753 0.2202
vn 0.6698 -0.6726 -0.3146
vn 0.7048 -0.7057 -0.0724
vn 0.0007 -0.9974 -0.0724
vn 0.0021 -0.9492 -0.3146
vn 0.7068 -0.7069 -0.0267
vn 0.7065 -0.7064 0.0430
vn -0.0000 -0.9991 0.0430
vn 0.0001 -0.9996 -0.0267
vn 0.7025 -0.7069 0.0831
vn 0.6702 -0.6783 0.3013
vn 0.0057 -0.9535 0.3013
vn 0.0031 -0.9965 0.0831
vn -0.0006 -0.9973 -0.0740
vn -0.0004 -1.0000 -0.0099
vn -0.7068 -0.7074 -0.0099
vn -0.7047 -0.7056 -0.0740
vn -0.0002 -1.0000 0.0092
vn -0.0006 -0.9910 0.1337
vn -0.7003 -0.7012 0.1337
vn -0.7069 -0.7072 0.0092
vn -0.0152 -0.9753 0.2202
vn -0.0245 -0.8410 0.5405
vn -0.5773 -0.6120 0.5405
vn -0.6789 -0.7004 0.2202
vn -0.0020 -0.9492 -0.3146
vn -0.0007 -0.9974 -0.0724
vn -0.7048 -0.7057 -0.0724
vn -0.6697 -0.6726 -0.3146
vn -0.0001 -0.9996 -0.0267
vn -0.7065 -0.7064 0.0430
vn -0.7068 -0.7069 -0.0267
vn -0.0031 -0.9965 0.0831
vn -0.0057 -0.9535 0.3013
vn -0.6702 -0.6783 0.3013
vn -0.7025 -0.7069 0.0831
vn -0.0739 -0.9193 0.3866
vn -0.1234 -0.2977 0.9466
vn -0.5977 -0.7023 0.3866
vn -0.0114 -0.0277 -0.9996
vn -0.0011 -0.9498 -0.3128
vn -0.6708 -0.6725 -0.3128
vn -0.6726 -0.6698 -0.3146
vn -0.7057 -0.7048 -0.0724
vn -0.9974 -0.0007 -0.0724
vn -0.9492 -0.0021 -0.3146
vn -0.7069 -0.7068 -0.0267
vn -0.7064 -0.7065 0.0430
vn -0.9991 0.0000 0.0430
vn -0.9996 -0.0001 -0.0267
vn -0.7069 -0.7025 0.0831
vn -0.6783 -0.6702 0.3013
vn -0.9535 -0.0057 0.3013
vn -0.9965 -0.0031 0.0831
vn -0.7023 -0.5977 0.3866
vn -0.2978 -0.1233 0.9466
vn -0.9193 -0.0740 0.3866
vn -0.0276 -0.0115 -0.9996
vn -0.6724 -0.6708 -0.3128
vn -0.9498 -0.0012 -0.3128
vn -0.7056 -0.7047 -0.0740
vn -0.7074 -0.7068 -0.0099
vn -1.0000 -0.0004 -0.0099
vn -0.9973 -0.0006 -0.0740
vn -0.7072 -0.7069 0.0092
vn -0.7012 -0.7003 0.1337
vn -0.9910 -0.0006 0.1337
vn -1.0000 -0.0002 0.0092
vn -0.7004 -0.6789 0.2202
vn -0.6120 -0.5773 0.5405
vn -0.8410 -0.0245 0.5405
vn -0.9753 -0.0152 0.2202
vn -0.9996 0.0001 -0.0267
vn -0.7064 0.7065 0.0430
vn -0.7069 0.7068 -0.0267
vn -0.9965 0.0031 0.0831
vn -0.9535 0.0057 0.3013
vn -0.6783 0.6702 0.3013
vn -0.7069 0.7025 0.0831
vn -0.9193 0.0739 0.3866
vn -0.2978 0.1234 0.9466
vn -0.7023 0.5977 0.3866
vn -0.0277 0.0114 -0.9996
vn -0.9498 0.0011 -0.3128
vn -0.6725 0.6708 -0.3128
vn -0.9973 0.0006 -0.0740
vn -1.0000 0.0004 -0.0099
vn -0.7074 0.7068 -0.0099
vn -0.7056 0.7047 -0.0740
vn -1.0000 0.0002 0.0092
vn -0.9910 0.0006 0.1337
vn -0.7012 0.7003 0.1337
vn -0.7072 0.7069 0.0092
vn -0.9753 0.0152 0.2202
vn -0.8410 0.0245 0.5405
vn -0.6120 0.5773 0.5405
vn -0.7004 0.6789 0.2202
vn -0.9492 0.0020 -0.3146
vn -0.9974 0.0007 -0.0724
vn -0.7057 0.7048 -0.0724
vn -0.6726 0.6697 -0.3146
vn -0.0115 0.0276 -0.9996
vn -0.6708 0.6724 -0.3128
vn -0.0012 0.9498 -0.3128
vn -0.7047 0.7056 -0.0740
vn -0.7068 0.7074 -0.0099
vn -0.0004 1.0000 -0.0099
vn -0.0006 0.9973 -0.0740
vn -0.7069 0.7072 0.0092
vn -0.7003 0.7012 0.1337
vn -0.0006 0.9910 0.1337
vn -0.0002 1.0000 0.0092
vn -0.6789 0.7004 0.2202
vn -0.5773 0.6120 0.5405
vn -0.0245 0.8410 0.5405
vn -0.0152 0.9753 0.2202
vn -0.6698 0.6726 -0.3146
vn -0.7048 0.7057 -0.0724
vn -0.0007 0.9974 -0.0724
vn -0.0021 0.9492 -0.3146
vn -0.7068 0.7069 -0.0267
vn -0.7065 0.7064 0.0430
vn -0.0001 0.9996 -0.0267
vn -0.7025 0.7069 0.0831
vn -0.6702 0.6783 0.3013
vn -0.0057 0.9535 0.3013
vn -0.0031 0.9965 0.0831
vn -0.5977 0.7023 0.3866
vn -0.1234 0.2978 0.9466
vn -0.0739 0.9193 0.3866
usemtl None
s off
f 17/1/1 58/2/2 9/3/3
f 57/4/4 56/5/5 7/6/6 8/7/7
f 1/8/8 55/9/9 5/10/10 6/11/11
f 54/12/12 53/13/13 3/14/14 4/15/15
f 58/2/16 57/4/17 8/7/18 9/3/19
f 56/5/20 1/8/21 6/11/22 7/6/23
f 55/9/24 54/12/25 4/15/26 5/10/27
f 53/13/28 2/16/29 3/14/30
f 4/15/31 3/14/32 10/17/33 11/18/34
f 9/3/35 8/7/36 15/19/37 16/20/38
f 7/6/39 6/11/40 13/21/41 14/22/42
f 5/10/43 4/15/44 11/18/45 12/23/46
f 3/14/47 2/24/48 10/17/49
f 17/25/50 9/3/51 16/20/52
f 8/7/53 7/6/54 14/22/55 15/19/56
f 6/11/57 5/10/58 12/23/59 13/21/60
f 16/20/61 15/19/62 23/26/63 24/27/64
f 14/22/65 13/21/41 21/28/66 22/29/67
f 12/23/68 11/18/69 19/30/70 20/31/71
f 10/17/72 2/32/73 18/33/74
f 17/34/75 16/20/76 24/27/77
f 15/19/78 14/22/79 22/29/80 23/26/81
f 13/21/82 12/23/83 20/31/84 21/28/85
f 11/18/86 10/17/87 18/33/88 19/30/89
f 18/33/90 2/35/91 25/36/92
f 17/37/93 24/27/94 31/38/95
f 23/26/96 22/29/97 29/39/98 30/40/99
f 21/28/100 20/31/101 27/41/102 28/42/103
f 19/30/104 18/33/105 25/36/106 26/43/107
f 24/27/108 23/26/109 30/40/110 31/38/111
f 22/29/112 21/28/113 28/42/114 29/39/115
f 20/31/116 19/30/117 26/43/118 27/41/119
f 30/40/120 29/39/121 36/44/122 37/45/123
f 28/42/124 27/41/125 34/46/126 35/47/127
f 26/43/128 25/36/129 32/48/130 33/49/131
f 31/38/132 30/40/133 37/45/134 38/50/135
f 29/39/136 28/42/114 35/47/137 36/44/138
f 27/41/139 26/43/140 33/49/141 34/46/142
f 25/36/143 2/51/144 32/48/145
f 17/52/146 31/38/147 38/50/148
f 38/50/149 37/45/150 44/53/151 45/54/152
f 36/44/153 35/47/154 42/55/155 43/56/156
f 34/46/157 33/49/158 40/57/159 41/58/160
f 32/48/161 2/59/162 39/60/163
f 17/61/164 38/50/165 45/54/166
f 37/45/167 36/44/168 43/56/169 44/53/170
f 35/47/171 34/46/172 41/58/173 42/55/174
f 33/49/175 32/48/176 39/60/177 40/57/178
f 43/62/179 42/63/155 49/64/180 50/65/181
f 41/66/182 40/67/183 47/68/184 48/69/185
f 39/70/186 2/71/187 46/72/188
f 17/73/189 45/74/190 52/75/191
f 44/76/192 43/62/193 50/65/194 51/77/195
f 42/63/196 41/66/197 48/69/198 49/64/199
f 40/67/200 39/70/201 46/72/202 47/68/203
f 45/74/204 44/76/205 51/77/206 52/75/207
f 17/78/208 52/75/209 58/2/210
f 51/77/211 50/65/212 56/5/213 57/4/214
f 49/64/215 48/69/216 55/9/217 1/8/218
f 47/68/219 46/72/220 53/13/221 54/12/222
f 52/75/223 51/77/224 57/4/225 58/2/226
f 50/65/227 49/64/228 1/8/21 56/5/229
f 48/69/230 47/68/231 54/12/232 55/9/233
f 46/72/234 2/79/235 53/13/236
