# Blender v2.83.7 OBJ File: ''
# www.blender.org
mtllib arrow.mtl
o 柱体
v 0.000000 0.000000 0.000000
v 0.000000 0.150000 0.000000
v 0.057403 0.138582 0.000000
v 0.106066 0.106066 0.000000
v 0.138582 0.057403 0.000000
v 0.150000 0.000000 0.000000
v 0.138582 -0.057403 0.000000
v 0.106066 -0.106066 0.000000
v 0.057403 -0.138582 0.000000
v 0.000000 -0.150000 0.000000
v -0.057402 -0.138582 0.000000
v -0.106066 -0.106066 0.000000
v -0.138582 -0.057403 0.000000
v -0.150000 0.000000 0.000000
v -0.138582 0.057403 0.000000
v -0.106066 0.106066 0.000000
v -0.057402 0.138582 0.000000
v 0.000000 0.150000 0.750000
v 0.057403 0.138582 0.750000
v 0.106066 0.106066 0.750000
v 0.138582 0.057403 0.750000
v 0.150000 -0.000000 0.750000
v 0.138582 -0.057403 0.750000
v 0.106066 -0.106066 0.750000
v 0.057403 -0.138582 0.750000
v 0.000000 -0.150000 0.750000
v -0.057402 -0.138582 0.750000
v -0.106066 -0.106066 0.750000
v -0.138582 -0.057403 0.750000
v -0.150000 -0.000000 0.750000
v -0.138582 0.057403 0.750000
v -0.106066 0.106066 0.750000
v -0.057402 0.138582 0.750000
v 0.000000 0.400000 0.750000
v 0.153073 0.369552 0.750000
v 0.282843 0.282843 0.750000
v 0.369552 0.153073 0.750000
v 0.400000 -0.000000 0.750000
v 0.369552 -0.153073 0.750000
v 0.282843 -0.282843 0.750000
v 0.153073 -0.369552 0.750000
v 0.000000 -0.400000 0.750000
v -0.153073 -0.369552 0.750000
v -0.282843 -0.282843 0.750000
v -0.369552 -0.153073 0.750000
v -0.400000 0.000000 0.750000
v -0.369552 0.153073 0.750000
v -0.282843 0.282843 0.750000
v -0.153073 0.369552 0.750000
vt 0.297268 0.808238
vt 0.314362 0.791145
vt 0.400218 0.848512
vt 0.354636 0.894095
vt 0.228427 0.808238
vt 0.250761 0.817489
vt 0.230616 0.918764
vt 0.171060 0.894095
vt 0.274935 0.817489
vt 0.295079 0.918764
vt 0.211334 0.791145
vt 0.125477 0.848512
vt 0.202083 0.768811
vt 0.100808 0.788956
vt 0.202083 0.744637
vt 0.100808 0.724493
vt 0.211334 0.722304
vt 0.125477 0.664936
vt 0.228427 0.705210
vt 0.171060 0.619354
vt 0.250761 0.695960
vt 0.230616 0.594685
vt 0.717203 0.723384
vt 0.920313 0.682983
vt 0.920313 0.763786
vt 0.889391 0.838437
vt 0.832255 0.895573
vt 0.757604 0.926495
vt 0.676801 0.926495
vt 0.602150 0.895573
vt 0.545014 0.838438
vt 0.514092 0.763786
vt 0.514092 0.682983
vt 0.545014 0.608332
vt 0.602150 0.551196
vt 0.676801 0.520274
vt 0.757604 0.520274
vt 0.832255 0.551196
vt 0.889391 0.608332
vt 0.323612 0.768811
vt 0.424887 0.788956
vt 0.323612 0.744637
vt 0.424887 0.724493
vt 0.314362 0.722304
vt 0.400218 0.664936
vt 0.297268 0.705210
vt 0.354636 0.619354
vt 0.274935 0.695960
vt 0.295079 0.594685
vn -0.0000 0.0000 -1.0000
usemtl None
s off
f 33/1/1 32/2/1 48/3/1 49/4/1
f 20/5/1 19/6/1 35/7/1 36/8/1
f 18/9/1 33/1/1 49/4/1 34/10/1
f 21/11/1 20/5/1 36/8/1 37/12/1
f 22/13/1 21/11/1 37/12/1 38/14/1
f 23/15/1 22/13/1 38/14/1 39/16/1
f 24/17/1 23/15/1 39/16/1 40/18/1
f 25/19/1 24/17/1 40/18/1 41/20/1
f 26/21/1 25/19/1 41/20/1 42/22/1
f 1/23/1 2/24/1 3/25/1
f 1/23/1 3/25/1 4/26/1
f 1/23/1 4/26/1 5/27/1
f 1/23/1 5/27/1 6/28/1
f 1/23/1 6/28/1 7/29/1
f 1/23/1 7/29/1 8/30/1
f 1/23/1 8/30/1 9/31/1
f 1/23/1 9/31/1 10/32/1
f 1/23/1 10/32/1 11/33/1
f 1/23/1 11/33/1 12/34/1
f 1/23/1 12/34/1 13/35/1
f 1/23/1 13/35/1 14/36/1
f 1/23/1 14/36/1 15/37/1
f 1/23/1 15/37/1 16/38/1
f 1/23/1 16/38/1 17/39/1
f 1/23/1 17/39/1 2/24/1
f 19/6/1 18/9/1 34/10/1 35/7/1
f 32/2/1 31/40/1 47/41/1 48/3/1
f 31/40/1 30/42/1 46/43/1 47/41/1
f 30/42/1 29/44/1 45/45/1 46/43/1
f 29/44/1 28/46/1 44/47/1 45/45/1
f 28/46/1 27/48/1 43/49/1 44/47/1
f 27/48/1 26/21/1 42/22/1 43/49/1
o 柱体.001
v 0.000000 -0.000000 1.500000
v 0.000000 0.150000 0.000000
v 0.057403 0.138582 0.000000
v 0.106066 0.106066 0.000000
v 0.138582 0.057403 0.000000
v 0.150000 0.000000 0.000000
v 0.138582 -0.057403 0.000000
v 0.106066 -0.106066 0.000000
v 0.057403 -0.138582 0.000000
v 0.000000 -0.150000 0.000000
v -0.057402 -0.138582 0.000000
v -0.106066 -0.106066 0.000000
v -0.138582 -0.057403 0.000000
v -0.150000 0.000000 0.000000
v -0.138582 0.057403 0.000000
v -0.106066 0.106066 0.000000
v -0.057402 0.138582 0.000000
v 0.000000 0.150000 0.750000
v 0.057403 0.138582 0.750000
v 0.106066 0.106066 0.750000
v 0.138582 0.057403 0.750000
v 0.150000 -0.000000 0.750000
v 0.138582 -0.057403 0.750000
v 0.106066 -0.106066 0.750000
v 0.057403 -0.138582 0.750000
v 0.000000 -0.150000 0.750000
v -0.057402 -0.138582 0.750000
v -0.106066 -0.106066 0.750000
v -0.138582 -0.057403 0.750000
v -0.150000 -0.000000 0.750000
v -0.138582 0.057403 0.750000
v -0.106066 0.106066 0.750000
v -0.057402 0.138582 0.750000
v 0.000000 0.400000 0.750000
v 0.153073 0.369552 0.750000
v 0.282843 0.282843 0.750000
v 0.369552 0.153073 0.750000
v 0.400000 -0.000000 0.750000
v 0.369552 -0.153073 0.750000
v 0.282843 -0.282843 0.750000
v 0.153073 -0.369552 0.750000
v 0.000000 -0.400000 0.750000
v -0.153073 -0.369552 0.750000
v -0.282843 -0.282843 0.750000
v -0.369552 -0.153073 0.750000
v -0.400000 0.000000 0.750000
v -0.369552 0.153073 0.750000
v -0.282843 0.282843 0.750000
v -0.153073 0.369552 0.750000
vt 0.821590 0.441303
vt 0.775551 0.343565
vt 0.798865 0.313230
vt 0.876997 0.385165
vt 0.749377 0.471513
vt 0.741907 0.361924
vt 0.670503 0.471516
vt 0.704611 0.370519
vt 0.597256 0.441360
vt 0.667065 0.363319
vt 0.540767 0.385558
vt 0.635505 0.341667
vt 0.509636 0.312390
vt 0.615029 0.309212
vt 0.508747 0.232812
vt 0.608832 0.271202
vt 0.538458 0.158938
vt 0.617805 0.233606
vt 0.594362 0.102212
vt 0.640510 0.202187
vt 0.667850 0.071511
vt 0.673475 0.181675
vt 0.747478 0.071612
vt 0.711744 0.175132
vt 0.820886 0.102389
vt 0.749575 0.183550
vt 0.876848 0.158933
vt 0.781241 0.205693
vt 0.907004 0.232479
vt 0.801845 0.238217
vt 0.907004 0.311864
vt 0.808089 0.276076
vt 0.096583 0.295177
vt 0.266470 0.328970
vt 0.096583 0.362762
vt 0.122447 0.425202
vt 0.170237 0.472992
vt 0.232677 0.498856
vt 0.300262 0.498856
vt 0.362702 0.472992
vt 0.410492 0.425202
vt 0.436356 0.362762
vt 0.436356 0.295177
vt 0.410492 0.232737
vt 0.362702 0.184947
vt 0.300262 0.159083
vt 0.232677 0.159083
vt 0.170236 0.184947
vt 0.122447 0.232737
vn -0.3827 0.9239 0.0000
vn 0.0000 1.0000 -0.0000
vn -0.7071 0.7071 0.0000
vn -0.9239 0.3827 0.0000
vn -1.0000 -0.0000 0.0000
vn -0.9239 0.3827 -0.0001
vn -0.9239 -0.3827 0.0000
vn -0.7071 -0.7071 0.0000
vn -0.3827 -0.9239 0.0000
vn 0.0000 -1.0000 0.0000
vn 0.3827 -0.9239 0.0000
vn 0.7071 -0.7071 0.0000
vn 0.9239 -0.3827 0.0000
vn 0.9239 -0.3827 -0.0001
vn 1.0000 0.0000 0.0000
vn 0.9239 0.3827 0.0000
vn 0.7071 0.7071 0.0000
vn 0.3827 0.9239 0.0000
vn 0.3827 0.9239 0.0001
vn 0.0000 0.8823 0.4706
vn 0.0001 -0.0000 1.0000
vn 0.3376 0.8152 0.4706
vn 0.3377 0.8152 0.4706
vn 0.0001 -0.0001 1.0000
vn 0.6239 0.6239 0.4706
vn -0.0001 0.0001 1.0000
vn 0.8152 0.3377 0.4706
vn 0.8152 0.3376 0.4706
vn -0.0000 -0.0001 1.0000
vn 0.8823 0.0000 0.4706
vn 0.8152 -0.3376 0.4706
vn 0.8152 -0.3377 0.4706
vn -0.0001 -0.0001 1.0000
vn 0.6239 -0.6239 0.4706
vn -0.0001 -0.0000 1.0000
vn 0.3377 -0.8152 0.4706
vn 0.3376 -0.8152 0.4706
vn 0.0000 -0.8823 0.4706
vn -0.3376 -0.8152 0.4706
vn -0.3377 -0.8152 0.4706
vn -0.6239 -0.6239 0.4706
vn -0.0000 0.0001 1.0000
vn -0.8152 -0.3377 0.4706
vn -0.8152 -0.3376 0.4706
vn -0.8823 -0.0000 0.4706
vn -0.8152 0.3376 0.4706
vn -0.8152 0.3377 0.4706
vn 0.0001 0.0001 1.0000
vn -0.6239 0.6239 0.4706
vn -0.3377 0.8152 0.4706
vn -0.3376 0.8152 0.4706
usemtl None
s off
f 66/50/2 82/51/2 67/52/3 51/53/3
f 65/54/4 81/55/4 82/51/2 66/50/2
f 64/56/5 80/57/5 81/55/4 65/54/4
f 63/58/6 79/59/6 80/57/5 64/56/7
f 62/60/8 78/61/8 79/59/6 63/58/6
f 61/62/9 77/63/9 78/61/8 62/60/8
f 60/64/10 76/65/10 77/63/9 61/62/9
f 59/66/11 75/67/11 76/65/10 60/64/10
f 58/68/12 74/69/12 75/67/11 59/66/11
f 57/70/13 73/71/13 74/69/12 58/68/12
f 56/72/14 72/73/15 73/71/13 57/70/13
f 55/74/16 71/75/16 72/73/14 56/72/14
f 54/76/17 70/77/17 71/75/16 55/74/16
f 53/78/18 69/79/18 70/77/17 54/76/17
f 52/80/19 68/81/20 69/79/18 53/78/18
f 51/53/3 67/52/3 68/81/19 52/80/19
f 83/82/21 50/83/22 84/84/23
f 84/84/24 50/83/25 85/85/26
f 85/85/26 50/83/27 86/86/28
f 86/86/29 50/83/30 87/87/31
f 87/87/31 50/83/30 88/88/32
f 88/88/33 50/83/34 89/89/35
f 89/89/35 50/83/36 90/90/37
f 90/90/38 50/83/36 91/91/39
f 91/91/39 50/83/22 92/92/40
f 92/92/41 50/83/22 93/93/42
f 93/93/42 50/83/43 94/94/44
f 94/94/45 50/83/43 95/95/46
f 95/95/46 50/83/43 96/96/47
f 96/96/48 50/83/49 97/97/50
f 97/97/50 50/83/22 98/98/51
f 98/98/52 50/83/22 83/82/21
