# Blender v2.83.7 OBJ File: 'shieldMesh.blend'
# www.blender.org
mtllib OctShield.mtl
o octShield_柱体.003
v 0.191342 0.461940 0.000000
v 0.461940 0.191342 0.000000
v 0.461940 -0.191342 -0.000000
v 0.191342 -0.461940 -0.000000
v -0.191342 -0.461940 -0.000000
v -0.461940 -0.191342 -0.000000
v -0.461940 0.191342 0.000000
v -0.191342 0.461940 0.000000
v -0.000000 0.000000 0.000000
vt -0.000000 0.500000
vt 0.990000 1.000000
vt 0.990000 0.000000
vt 0.990000 0.999900
vt 0.990000 0.999900
vt 0.990000 1.000000
vt 0.990000 -0.000000
vt 0.990000 0.000100
vt 0.990000 0.000100
vn -0.0000 -0.0000 1.0000
usemtl None.002
s off
f 9/1/1 2/2/1 1/3/1
f 9/1/1 3/4/1 2/2/1
f 9/1/1 4/5/1 3/4/1
f 9/1/1 5/6/1 4/5/1
f 9/1/1 6/7/1 5/6/1
f 9/1/1 7/8/1 6/7/1
f 9/1/1 8/9/1 7/8/1
f 9/1/1 1/3/1 8/9/1
