# Blender v2.83.7 OBJ File: 'circle.blend'
# www.blender.org
mtllib halfcircle.mtl
o 1/2柱体.002_柱体.005
v 0.400000 0.500000 -0.000000
v 0.392314 -0.500000 0.078036
v 0.392314 0.500000 0.078036
v 0.369552 0.500000 0.153073
v 0.332588 -0.500000 0.222228
v 0.332588 0.500000 0.222228
v 0.282843 0.500000 0.282843
v 0.222228 -0.500000 0.332588
v 0.222228 0.500000 0.332588
v 0.153073 0.500000 0.369552
v 0.078036 0.500000 0.392314
v -0.000000 -0.500000 0.400000
v -0.000000 0.500000 0.400000
v -0.078036 0.500000 0.392314
v -0.153074 -0.500000 0.369552
v -0.153074 0.500000 0.369552
v -0.222228 0.500000 0.332588
v -0.282843 -0.500000 0.282843
v -0.282843 0.500000 0.282843
v -0.332588 0.500000 0.222228
v -0.369552 0.500000 0.153073
v -0.392314 -0.500000 0.078036
v -0.392314 0.500000 0.078036
v -0.400000 0.500000 -0.000000
v 0.153073 -0.500000 0.369552
v 0.078036 -0.500000 0.392314
v -0.400000 -0.500000 -0.000000
v -0.222228 -0.500000 0.332588
v 0.282843 -0.500000 0.282843
v 0.369552 -0.500000 0.153073
v 0.400000 -0.500000 -0.000000
v -0.369552 -0.500000 0.153073
v -0.332588 -0.500000 0.222228
v -0.078036 -0.500000 0.392314
v 0.500000 0.500000 -0.000000
v 0.500000 -0.500000 -0.000000
v 0.490393 0.500000 0.097545
v 0.490393 -0.500000 0.097545
v 0.461940 0.500000 0.191342
v 0.461940 -0.500000 0.191342
v 0.415735 0.500000 0.277785
v 0.415735 -0.500000 0.277785
v 0.353553 0.500000 0.353553
v 0.353553 -0.500000 0.353553
v 0.277785 0.500000 0.415735
v 0.277785 -0.500000 0.415735
v 0.191342 0.500000 0.461940
v 0.191342 -0.500000 0.461940
v 0.097545 0.500000 0.490393
v 0.097545 -0.500000 0.490393
v -0.000000 0.500000 0.500000
v -0.000000 -0.500000 0.500000
v -0.097545 0.500000 0.490393
v -0.097545 -0.500000 0.490393
v -0.191342 0.500000 0.461940
v -0.191342 -0.500000 0.461940
v -0.277785 0.500000 0.415735
v -0.277785 -0.500000 0.415735
v -0.353554 0.500000 0.353553
v -0.353554 -0.500000 0.353553
v -0.415735 0.500000 0.277785
v -0.415735 -0.500000 0.277785
v -0.461940 0.500000 0.191341
v -0.461940 -0.500000 0.191341
v -0.490393 0.500000 0.097545
v -0.490393 -0.500000 0.097545
v -0.500000 0.500000 -0.000000
v -0.500000 -0.500000 -0.000000
vt 0.937500 0.368567
vt 0.937500 0.544992
vt 1.000000 0.544992
vt 1.000000 0.368567
vt 0.750000 0.368567
vt 0.750000 0.544992
vt 0.812500 0.544992
vt 0.812500 0.368567
vt 0.875000 0.544992
vt 0.875000 0.368567
vt 0.437500 0.368567
vt 0.437500 0.544992
vt 0.500000 0.544992
vt 0.500000 0.368567
vt 0.562500 0.544992
vt 0.562500 0.368567
vt 0.312500 0.368567
vt 0.312500 0.544992
vt 0.375000 0.544992
vt 0.375000 0.368567
vt 0.687500 0.368567
vt 0.687500 0.544992
vt 0.625000 0.368567
vt 0.625000 0.544992
vt 0.250000 0.368567
vt 0.250000 0.544992
vt 0.125000 0.368567
vt 0.125000 0.544992
vt 0.187500 0.544992
vt 0.187500 0.368567
vt 0.000000 0.368567
vt 0.000000 0.544992
vt 0.062500 0.544992
vt 0.062500 0.368567
vt 0.062500 0.709958
vt 0.062500 0.828600
vt 0.000000 0.828600
vt 0.000000 0.709958
vt 0.125000 0.709958
vt 0.125000 0.828600
vt 0.187500 0.709958
vt 0.187500 0.828600
vt 0.250000 0.709958
vt 0.250000 0.828600
vt 0.312500 0.709958
vt 0.312500 0.828600
vt 0.375000 0.709958
vt 0.375000 0.828600
vt 0.437500 0.709958
vt 0.437500 0.828600
vt 0.500000 0.709958
vt 0.500000 0.828600
vt 0.562500 0.709958
vt 0.562500 0.828600
vt 0.625000 0.709958
vt 0.625000 0.828600
vt 0.687500 0.709958
vt 0.687500 0.828600
vt 0.750000 0.709958
vt 0.750000 0.828600
vt 0.812500 0.709958
vt 0.812500 0.828600
vt 0.875000 0.709958
vt 0.875000 0.828600
vt 0.937500 0.709958
vt 0.937500 0.828600
vt 1.000000 0.709958
vt 1.000000 0.828600
vn -0.9808 -0.0000 -0.1951
vn -1.0000 0.0000 0.0000
vn -0.7071 0.0000 -0.7071
vn -0.8315 0.0000 -0.5556
vn -0.9239 0.0000 -0.3827
vn 0.1951 0.0000 -0.9808
vn -0.0000 0.0000 -1.0000
vn -0.1951 0.0000 -0.9808
vn 0.5556 0.0000 -0.8315
vn 0.3827 0.0000 -0.9239
vn -0.5556 0.0000 -0.8315
vn -0.3827 0.0000 -0.9239
vn 0.7071 0.0000 -0.7071
vn 0.9239 -0.0000 -0.3827
vn 0.8315 0.0000 -0.5556
vn 1.0000 0.0000 0.0000
vn 0.9808 0.0000 -0.1951
vn -0.9808 0.0000 0.1951
vn -0.9239 0.0000 0.3827
vn -0.8315 0.0000 0.5556
vn -0.7071 0.0000 0.7071
vn -0.5556 0.0000 0.8315
vn -0.3827 0.0000 0.9239
vn -0.1951 0.0000 0.9808
vn 0.0000 0.0000 1.0000
vn 0.1951 0.0000 0.9808
vn 0.3827 0.0000 0.9239
vn 0.5556 0.0000 0.8315
vn 0.7071 0.0000 0.7071
vn 0.8315 0.0000 0.5556
vn 0.9239 0.0000 0.3827
vn 0.9808 0.0000 0.1951
usemtl 材质.001
s off
f 2/1/1 3/2/1 1/3/2 31/4/2
f 29/5/3 7/6/3 6/7/4 5/8/4
f 5/8/4 6/7/4 4/9/5 30/10/5
f 34/11/6 14/12/6 13/13/7 12/14/7
f 12/14/7 13/13/7 11/15/8 26/16/8
f 28/17/9 17/18/9 16/19/10 15/20/10
f 8/21/11 9/22/11 7/6/3 29/5/3
f 25/23/12 10/24/12 9/22/11 8/21/11
f 18/25/13 19/26/13 17/18/9 28/17/9
f 32/27/14 21/28/14 20/29/15 33/30/15
f 27/31/16 24/32/16 23/33/17 22/34/17
f 30/10/5 4/9/5 3/2/1 2/1/1
f 15/20/10 16/19/10 14/12/6 34/11/6
f 26/16/8 11/15/8 10/24/12 25/23/12
f 22/34/17 23/33/17 21/28/14 32/27/14
f 33/30/15 20/29/15 19/26/13 18/25/13
f 66/35/18 65/36/18 67/37/2 68/38/2
f 64/39/19 63/40/19 65/36/18 66/35/18
f 62/41/20 61/42/20 63/40/19 64/39/19
f 60/43/21 59/44/21 61/42/20 62/41/20
f 58/45/22 57/46/22 59/44/21 60/43/21
f 56/47/23 55/48/23 57/46/22 58/45/22
f 54/49/24 53/50/24 55/48/23 56/47/23
f 52/51/25 51/52/25 53/50/24 54/49/24
f 50/53/26 49/54/26 51/52/25 52/51/25
f 48/55/27 47/56/27 49/54/26 50/53/26
f 46/57/28 45/58/28 47/56/27 48/55/27
f 44/59/29 43/60/29 45/58/28 46/57/28
f 42/61/30 41/62/30 43/60/29 44/59/29
f 40/63/31 39/64/31 41/62/30 42/61/30
f 38/65/32 37/66/32 39/64/31 40/63/31
f 36/67/16 35/68/16 37/66/32 38/65/32
o 1/2柱体.001_柱体.004
v 0.400000 0.500000 -0.000000
v 0.392314 -0.500000 0.078036
v 0.392314 0.500000 0.078036
v 0.369552 0.500000 0.153073
v 0.332588 -0.500000 0.222228
v 0.332588 0.500000 0.222228
v 0.282843 0.500000 0.282843
v 0.222228 -0.500000 0.332588
v 0.222228 0.500000 0.332588
v 0.153073 0.500000 0.369552
v 0.078036 0.500000 0.392314
v -0.000000 -0.500000 0.400000
v -0.000000 0.500000 0.400000
v -0.078036 0.500000 0.392314
v -0.153074 -0.500000 0.369552
v -0.153074 0.500000 0.369552
v -0.222228 0.500000 0.332588
v -0.282843 -0.500000 0.282843
v -0.282843 0.500000 0.282843
v -0.332588 0.500000 0.222228
v -0.369552 0.500000 0.153073
v -0.392314 -0.500000 0.078036
v -0.392314 0.500000 0.078036
v -0.400000 0.500000 -0.000000
v 0.153073 -0.500000 0.369552
v 0.078036 -0.500000 0.392314
v -0.400000 -0.500000 -0.000000
v -0.222228 -0.500000 0.332588
v 0.282843 -0.500000 0.282843
v 0.369552 -0.500000 0.153073
v 0.400000 -0.500000 -0.000000
v -0.369552 -0.500000 0.153073
v -0.332588 -0.500000 0.222228
v -0.078036 -0.500000 0.392314
v 0.500000 0.500000 -0.000000
v 0.500000 -0.500000 -0.000000
v 0.490393 0.500000 0.097545
v 0.490393 -0.500000 0.097545
v 0.461940 0.500000 0.191342
v 0.461940 -0.500000 0.191342
v 0.415735 0.500000 0.277785
v 0.415735 -0.500000 0.277785
v 0.353553 0.500000 0.353553
v 0.353553 -0.500000 0.353553
v 0.277785 0.500000 0.415735
v 0.277785 -0.500000 0.415735
v 0.191342 0.500000 0.461940
v 0.191342 -0.500000 0.461940
v 0.097545 0.500000 0.490393
v 0.097545 -0.500000 0.490393
v -0.000000 0.500000 0.500000
v -0.000000 -0.500000 0.500000
v -0.097545 0.500000 0.490393
v -0.097545 -0.500000 0.490393
v -0.191342 0.500000 0.461940
v -0.191342 -0.500000 0.461940
v -0.277785 0.500000 0.415735
v -0.277785 -0.500000 0.415735
v -0.353554 0.500000 0.353553
v -0.353554 -0.500000 0.353553
v -0.415735 0.500000 0.277785
v -0.415735 -0.500000 0.277785
v -0.461940 0.500000 0.191341
v -0.461940 -0.500000 0.191341
v -0.490393 0.500000 0.097545
v -0.490393 -0.500000 0.097545
v -0.500000 0.500000 -0.000000
v -0.500000 -0.500000 -0.000000
v 0.400000 0.500000 -0.000000
v -0.400000 0.500000 -0.000000
v -0.400000 -0.500000 -0.000000
v 0.400000 -0.500000 -0.000000
v 0.500000 0.500000 -0.000000
v 0.500000 -0.500000 -0.000000
v -0.500000 0.500000 -0.000000
v -0.500000 -0.500000 -0.000000
vt 1.000000 0.828600
vt 1.000000 0.947241
vt 0.937500 0.947241
vt 0.937500 0.828600
vt 0.875000 0.947241
vt 0.875000 0.828600
vt 0.812500 0.947241
vt 0.812500 0.828600
vt 0.750000 0.947241
vt 0.750000 0.828600
vt 0.687500 0.947241
vt 0.687500 0.828600
vt 0.625000 0.947241
vt 0.625000 0.828600
vt 0.562500 0.947241
vt 0.562500 0.828600
vt 0.500000 0.947241
vt 0.500000 0.828600
vt 0.437500 0.947241
vt 0.437500 0.828600
vt 0.375000 0.947241
vt 0.375000 0.828600
vt 0.312500 0.947241
vt 0.312500 0.828600
vt 0.250000 0.947241
vt 0.250000 0.828600
vt 0.187500 0.947241
vt 0.187500 0.828600
vt 0.125000 0.947241
vt 0.125000 0.828600
vt 0.062500 0.947241
vt 0.062500 0.828600
vt 0.000000 0.947241
vt 0.000000 0.828600
vt 0.062500 0.591317
vt 0.062500 0.709958
vt 0.000000 0.709958
vt 0.000000 0.591317
vt 0.125000 0.591317
vt 0.125000 0.709958
vt 0.187500 0.591317
vt 0.187500 0.709958
vt 0.250000 0.591317
vt 0.250000 0.709958
vt 0.312500 0.591317
vt 0.312500 0.709958
vt 0.375000 0.591317
vt 0.375000 0.709958
vt 0.437500 0.591317
vt 0.437500 0.709958
vt 0.500000 0.591317
vt 0.500000 0.709958
vt 0.562500 0.591317
vt 0.562500 0.709958
vt 0.625000 0.591317
vt 0.625000 0.709958
vt 0.687500 0.591317
vt 0.687500 0.709958
vt 0.750000 0.591317
vt 0.750000 0.709958
vt 0.812500 0.591317
vt 0.812500 0.709958
vt 0.875000 0.591317
vt 0.875000 0.709958
vt 0.937500 0.591317
vt 0.937500 0.709958
vt 1.000000 0.591317
vt 1.000000 0.709958
vt 0.469104 0.268596
vt 0.267229 0.268596
vt 0.267228 0.111287
vt 0.469104 0.111287
vt 0.671235 0.111287
vt 0.671235 0.268596
vt 0.469360 0.268596
vt 0.469359 0.111287
vn 0.0000 1.0000 -0.0000
vn -0.0000 -1.0000 0.0000
vn -0.0000 0.0000 -1.0000
usemtl 材质.001
s off
f 103/69/33 69/70/33 71/71/33 105/72/33
f 105/72/33 71/71/33 72/73/33 107/74/33
f 107/74/33 72/73/33 74/75/33 109/76/33
f 109/76/33 74/75/33 75/77/33 111/78/33
f 111/78/33 75/77/33 77/79/33 113/80/33
f 113/80/33 77/79/33 78/81/33 115/82/33
f 115/82/33 78/81/33 79/83/33 117/84/33
f 117/84/33 79/83/33 81/85/33 119/86/33
f 119/86/33 81/85/33 82/87/33 121/88/33
f 121/88/33 82/87/33 84/89/33 123/90/33
f 123/90/33 84/89/33 85/91/33 125/92/33
f 125/92/33 85/91/33 87/93/33 127/94/33
f 127/94/33 87/93/33 88/95/33 129/96/33
f 129/96/33 88/95/33 89/97/33 131/98/33
f 131/98/33 89/97/33 91/99/33 133/100/33
f 133/100/33 91/99/33 92/101/33 135/102/33
f 90/103/34 134/104/34 136/105/34 95/106/34
f 100/107/34 132/108/34 134/104/34 90/103/34
f 101/109/34 130/110/34 132/108/34 100/107/34
f 86/111/34 128/112/34 130/110/34 101/109/34
f 96/113/34 126/114/34 128/112/34 86/111/34
f 83/115/34 124/116/34 126/114/34 96/113/34
f 102/117/34 122/118/34 124/116/34 83/115/34
f 80/119/34 120/120/34 122/118/34 102/117/34
f 94/121/34 118/122/34 120/120/34 80/119/34
f 93/123/34 116/124/34 118/122/34 94/121/34
f 76/125/34 114/126/34 116/124/34 93/123/34
f 97/127/34 112/128/34 114/126/34 76/125/34
f 73/129/34 110/130/34 112/128/34 97/127/34
f 98/131/34 108/132/34 110/130/34 73/129/34
f 70/133/34 106/134/34 108/132/34 98/131/34
f 99/135/34 104/136/34 106/134/34 70/133/34
f 137/137/35 141/138/35 142/139/35 140/140/35
f 138/141/35 139/142/35 144/143/35 143/144/35
