# Blender v2.83.7 OBJ File: 'circle.blend'
# www.blender.org
mtllib quartercircle.mtl
o 1/4柱体.002_柱体.005
v 0.282843 0.500000 0.282843
v 0.222228 -0.500000 0.332588
v 0.222228 0.500000 0.332588
v 0.153073 0.500000 0.369552
v 0.078036 0.500000 0.392314
v -0.000000 -0.500000 0.400000
v -0.000000 0.500000 0.400000
v -0.078036 0.500000 0.392314
v -0.153074 -0.500000 0.369552
v -0.153074 0.500000 0.369552
v -0.222228 0.500000 0.332588
v -0.282843 -0.500000 0.282843
v -0.282843 0.500000 0.282843
v 0.153073 -0.500000 0.369552
v 0.078036 -0.500000 0.392314
v -0.222228 -0.500000 0.332588
v 0.282843 -0.500000 0.282843
v -0.078036 -0.500000 0.392314
v 0.353553 0.500000 0.353553
v 0.353553 -0.500000 0.353553
v 0.277785 0.500000 0.415735
v 0.277785 -0.500000 0.415735
v 0.191342 0.500000 0.461940
v 0.191342 -0.500000 0.461940
v 0.097545 0.500000 0.490393
v 0.097545 -0.500000 0.490393
v -0.000000 0.500000 0.500000
v -0.000000 -0.500000 0.500000
v -0.097545 0.500000 0.490393
v -0.097545 -0.500000 0.490393
v -0.191342 0.500000 0.461940
v -0.191342 -0.500000 0.461940
v -0.277785 0.500000 0.415735
v -0.277785 -0.500000 0.415735
v -0.353554 0.500000 0.353553
v -0.353554 -0.500000 0.353553
vt 0.375000 0.368567
vt 0.375000 0.544992
vt 0.500000 0.544992
vt 0.500000 0.368567
vt 0.625000 0.544992
vt 0.625000 0.368567
vt 0.125000 0.368567
vt 0.125000 0.544992
vt 0.250000 0.544992
vt 0.250000 0.368567
vt 0.875000 0.368567
vt 0.875000 0.544992
vt 1.000000 0.544992
vt 1.000000 0.368567
vt 0.750000 0.368567
vt 0.750000 0.544992
vt 0.000000 0.368567
vt 0.000000 0.544992
vt 0.125000 0.709958
vt 0.125000 0.828600
vt 0.000000 0.828600
vt 0.000000 0.709958
vt 0.250000 0.709958
vt 0.250000 0.828600
vt 0.375000 0.709958
vt 0.375000 0.828600
vt 0.500000 0.709958
vt 0.500000 0.828600
vt 0.625000 0.709958
vt 0.625000 0.828600
vt 0.750000 0.709958
vt 0.750000 0.828600
vt 0.875000 0.709958
vt 0.875000 0.828600
vt 1.000000 0.709958
vt 1.000000 0.828600
vn 0.1951 0.0000 -0.9808
vn -0.0000 0.0000 -1.0000
vn -0.1951 0.0000 -0.9808
vn 0.5556 0.0000 -0.8315
vn 0.3827 0.0000 -0.9239
vn -0.5556 0.0000 -0.8315
vn -0.7071 0.0000 -0.7071
vn -0.3827 0.0000 -0.9239
vn 0.7071 0.0000 -0.7071
vn -0.5556 0.0000 0.8315
vn -0.7071 -0.0000 0.7071
vn -0.3827 0.0000 0.9239
vn -0.1951 0.0000 0.9808
vn 0.0000 0.0000 1.0000
vn 0.1951 0.0000 0.9808
vn 0.3827 0.0000 0.9239
vn 0.5556 0.0000 0.8315
vn 0.7071 0.0000 0.7071
usemtl 材质.001
s off
f 18/1/1 8/2/1 7/3/2 6/4/2
f 6/4/2 7/3/2 5/5/3 15/6/3
f 16/7/4 11/8/4 10/9/5 9/10/5
f 2/11/6 3/12/6 1/13/7 17/14/7
f 14/15/8 4/16/8 3/12/6 2/11/6
f 12/17/9 13/18/9 11/8/4 16/7/4
f 9/10/5 10/9/5 8/2/1 18/1/1
f 15/6/3 5/5/3 4/16/8 14/15/8
f 34/19/10 33/20/10 35/21/11 36/22/11
f 32/23/12 31/24/12 33/20/10 34/19/10
f 30/25/13 29/26/13 31/24/12 32/23/12
f 28/27/14 27/28/14 29/26/13 30/25/13
f 26/29/15 25/30/15 27/28/14 28/27/14
f 24/31/16 23/32/16 25/30/15 26/29/15
f 22/33/17 21/34/17 23/32/16 24/31/16
f 20/35/18 19/36/18 21/34/17 22/33/17
o 1/4柱体.001_柱体.004
v 0.282843 0.500000 0.282843
v 0.222228 -0.500000 0.332588
v 0.222228 0.500000 0.332588
v 0.153073 0.500000 0.369552
v 0.078036 0.500000 0.392314
v -0.000000 -0.500000 0.400000
v -0.000000 0.500000 0.400000
v -0.078036 0.500000 0.392314
v -0.153074 -0.500000 0.369552
v -0.153074 0.500000 0.369552
v -0.222228 0.500000 0.332588
v -0.282843 -0.500000 0.282843
v -0.282843 0.500000 0.282843
v 0.153073 -0.500000 0.369552
v 0.078036 -0.500000 0.392314
v -0.222228 -0.500000 0.332588
v 0.282843 -0.500000 0.282843
v -0.078036 -0.500000 0.392314
v 0.353553 0.500000 0.353553
v 0.353553 -0.500000 0.353553
v 0.277785 0.500000 0.415735
v 0.277785 -0.500000 0.415735
v 0.191342 0.500000 0.461940
v 0.191342 -0.500000 0.461940
v 0.097545 0.500000 0.490393
v 0.097545 -0.500000 0.490393
v -0.000000 0.500000 0.500000
v -0.000000 -0.500000 0.500000
v -0.097545 0.500000 0.490393
v -0.097545 -0.500000 0.490393
v -0.191342 0.500000 0.461940
v -0.191342 -0.500000 0.461940
v -0.277785 0.500000 0.415735
v -0.277785 -0.500000 0.415735
v -0.353554 0.500000 0.353553
v -0.353554 -0.500000 0.353553
v 0.282843 0.500000 0.282843
v -0.282843 -0.500000 0.282843
v -0.282843 0.500000 0.282843
v 0.282843 -0.500000 0.282843
v 0.353553 0.500000 0.353553
v 0.353553 -0.500000 0.353553
v -0.353554 0.500000 0.353553
v -0.353554 -0.500000 0.353553
vt 1.000000 0.828600
vt 1.000000 0.947241
vt 0.875000 0.947241
vt 0.875000 0.828600
vt 0.750000 0.947241
vt 0.750000 0.828600
vt 0.625000 0.947241
vt 0.625000 0.828600
vt 0.500000 0.947241
vt 0.500000 0.828600
vt 0.375000 0.947241
vt 0.375000 0.828600
vt 0.250000 0.947241
vt 0.250000 0.828600
vt 0.125000 0.947241
vt 0.125000 0.828600
vt 0.000000 0.947241
vt 0.000000 0.828600
vt 0.125000 0.591317
vt 0.125000 0.709958
vt 0.000000 0.709958
vt 0.000000 0.591317
vt 0.250000 0.591317
vt 0.250000 0.709958
vt 0.375000 0.591317
vt 0.375000 0.709958
vt 0.500000 0.591317
vt 0.500000 0.709958
vt 0.625000 0.591317
vt 0.625000 0.709958
vt 0.750000 0.591317
vt 0.750000 0.709958
vt 0.875000 0.591317
vt 0.875000 0.709958
vt 1.000000 0.591317
vt 1.000000 0.709958
vt 0.571744 0.279029
vt 0.471756 0.279029
vt 0.471756 0.056560
vt 0.571744 0.056560
vt 0.371641 0.279029
vt 0.371642 0.056560
vt 0.471629 0.056560
vt 0.471629 0.279029
vn 0.0000 1.0000 0.0000
vn -0.0000 -1.0000 0.0000
vn 0.7071 0.0000 -0.7071
vn -0.7071 0.0000 -0.7071
usemtl 材质.001
s off
f 55/37/19 37/38/19 39/39/19 57/40/19
f 57/40/19 39/39/19 40/41/19 59/42/19
f 59/42/19 40/41/19 41/43/19 61/44/19
f 61/44/19 41/43/19 43/45/19 63/46/19
f 63/46/19 43/45/19 44/47/19 65/48/19
f 65/48/19 44/47/19 46/49/19 67/50/19
f 67/50/19 46/49/19 47/51/19 69/52/19
f 69/52/19 47/51/19 49/53/19 71/54/19
f 52/55/20 70/56/20 72/57/20 48/58/20
f 45/59/20 68/60/20 70/56/20 52/55/20
f 54/61/20 66/62/20 68/60/20 45/59/20
f 42/63/20 64/64/20 66/62/20 54/61/20
f 51/65/20 62/66/20 64/64/20 42/63/20
f 50/67/20 60/68/20 62/66/20 51/65/20
f 38/69/20 58/70/20 60/68/20 50/67/20
f 53/71/20 56/72/20 58/70/20 38/69/20
f 73/73/21 77/74/21 78/75/21 76/76/21
f 80/77/22 79/78/22 75/79/22 74/80/22
